<svg width="512" height="512" viewBox="0 0 512 512" fill="none" xmlns="http://www.w3.org/2000/svg">
<rect width="512" height="512" fill="#252525"/>
<path d="M139.574 451H138.269V440.8H139.574V451ZM146.066 444.58C145.786 444.58 145.456 444.65 145.076 444.79C144.706 444.93 144.256 445.215 143.726 445.645V451H142.496V443.575H143.666V444.61C144.196 444.16 144.676 443.85 145.106 443.68C145.546 443.51 145.966 443.425 146.366 443.425C147.056 443.425 147.581 443.645 147.941 444.085C148.311 444.515 148.496 445.13 148.496 445.93V451H147.266V446.11C147.266 445.09 146.866 444.58 146.066 444.58ZM155.145 450.73C154.585 451.01 153.99 451.15 153.36 451.15C152.82 451.15 152.395 451.04 152.085 450.82C151.785 450.6 151.57 450.305 151.44 449.935C151.32 449.565 151.26 449.155 151.26 448.705V444.655H149.97V443.575H151.26V441.505H152.49V443.575H154.92V444.655H152.49V448.66C152.49 449.18 152.575 449.54 152.745 449.74C152.925 449.93 153.2 450.025 153.57 450.025C153.75 450.025 153.935 450.005 154.125 449.965C154.325 449.915 154.54 449.835 154.77 449.725L155.145 450.73ZM162.148 450.565C161.698 450.785 161.248 450.935 160.798 451.015C160.348 451.105 159.933 451.15 159.553 451.15C158.483 451.15 157.683 450.845 157.153 450.235C156.633 449.625 156.373 448.79 156.373 447.73V446.83C156.373 445.8 156.633 444.975 157.153 444.355C157.683 443.735 158.428 443.425 159.388 443.425C159.898 443.425 160.363 443.53 160.783 443.74C161.213 443.94 161.553 444.25 161.803 444.67C162.063 445.08 162.193 445.61 162.193 446.26C162.193 446.68 162.133 447.16 162.013 447.7H157.588V447.73C157.588 448.49 157.743 449.065 158.053 449.455C158.373 449.845 158.883 450.04 159.583 450.04C159.903 450.04 160.253 450 160.633 449.92C161.023 449.84 161.403 449.715 161.773 449.545L162.148 450.565ZM159.388 444.505C158.808 444.505 158.368 444.695 158.068 445.075C157.778 445.445 157.618 445.97 157.588 446.65H160.948C160.978 446.47 160.993 446.3 160.993 446.14C160.993 445.58 160.833 445.17 160.513 444.91C160.203 444.64 159.828 444.505 159.388 444.505ZM164.307 449.2V439.9H165.537V449.14C165.537 449.41 165.577 449.615 165.657 449.755C165.747 449.885 165.922 449.95 166.182 449.95H166.422V451.075H166.077C165.417 451.075 164.957 450.9 164.697 450.55C164.437 450.2 164.307 449.75 164.307 449.2ZM168.262 449.2V439.9H169.492V449.14C169.492 449.41 169.532 449.615 169.612 449.755C169.702 449.885 169.877 449.95 170.137 449.95H170.377V451.075H170.032C169.372 451.075 168.912 450.9 168.652 450.55C168.392 450.2 168.262 449.75 168.262 449.2ZM173.537 441.76H172.157V440.38H173.537V441.76ZM173.462 451H172.232V443.575H173.462V451ZM182.054 451.93C182.054 452.66 181.754 453.245 181.154 453.685C180.564 454.125 179.749 454.345 178.709 454.345C178.189 454.345 177.644 454.275 177.074 454.135C176.514 453.995 175.984 453.77 175.484 453.46L175.904 452.5C176.404 452.78 176.884 452.975 177.344 453.085C177.814 453.205 178.269 453.265 178.709 453.265C179.389 453.265 179.914 453.155 180.284 452.935C180.654 452.715 180.839 452.42 180.839 452.05C180.839 451.78 180.749 451.57 180.569 451.42C180.389 451.28 180.099 451.21 179.699 451.21H177.974C177.324 451.21 176.854 451.055 176.564 450.745C176.274 450.435 176.129 450.095 176.129 449.725C176.129 449.465 176.189 449.21 176.309 448.96C176.429 448.7 176.599 448.445 176.819 448.195C176.469 447.985 176.189 447.7 175.979 447.34C175.769 446.97 175.664 446.525 175.664 446.005C175.664 445.435 175.784 444.96 176.024 444.58C176.274 444.2 176.604 443.915 177.014 443.725C177.424 443.525 177.884 443.425 178.394 443.425H178.649C178.999 443.425 179.319 443.475 179.609 443.575H182.279V444.67L180.659 444.445C180.869 444.625 181.039 444.85 181.169 445.12C181.299 445.38 181.364 445.7 181.364 446.08C181.364 446.62 181.239 447.075 180.989 447.445C180.749 447.815 180.424 448.1 180.014 448.3C179.604 448.49 179.149 448.585 178.649 448.585H178.394C178.264 448.585 178.139 448.58 178.019 448.57C177.899 448.55 177.779 448.53 177.659 448.51C177.369 448.83 177.224 449.145 177.224 449.455C177.224 449.855 177.504 450.055 178.064 450.055H179.744C180.464 450.055 181.029 450.215 181.439 450.535C181.849 450.855 182.054 451.32 182.054 451.93ZM178.649 447.52C179.039 447.52 179.384 447.395 179.684 447.145C179.984 446.895 180.134 446.515 180.134 446.005C180.134 445.505 179.984 445.13 179.684 444.88C179.384 444.62 179.039 444.49 178.649 444.49H178.394C177.994 444.49 177.644 444.62 177.344 444.88C177.044 445.13 176.894 445.505 176.894 446.005C176.894 446.515 177.044 446.895 177.344 447.145C177.644 447.395 177.994 447.52 178.394 447.52H178.649ZM189.292 450.565C188.842 450.785 188.392 450.935 187.942 451.015C187.492 451.105 187.077 451.15 186.697 451.15C185.627 451.15 184.827 450.845 184.297 450.235C183.777 449.625 183.517 448.79 183.517 447.73V446.83C183.517 445.8 183.777 444.975 184.297 444.355C184.827 443.735 185.572 443.425 186.532 443.425C187.042 443.425 187.507 443.53 187.927 443.74C188.357 443.94 188.697 444.25 188.947 444.67C189.207 445.08 189.337 445.61 189.337 446.26C189.337 446.68 189.277 447.16 189.157 447.7H184.732V447.73C184.732 448.49 184.887 449.065 185.197 449.455C185.517 449.845 186.027 450.04 186.727 450.04C187.047 450.04 187.397 450 187.777 449.92C188.167 449.84 188.547 449.715 188.917 449.545L189.292 450.565ZM186.532 444.505C185.952 444.505 185.512 444.695 185.212 445.075C184.922 445.445 184.762 445.97 184.732 446.65H188.092C188.122 446.47 188.137 446.3 188.137 446.14C188.137 445.58 187.977 445.17 187.657 444.91C187.347 444.64 186.972 444.505 186.532 444.505ZM195.036 444.58C194.756 444.58 194.426 444.65 194.046 444.79C193.676 444.93 193.226 445.215 192.696 445.645V451H191.466V443.575H192.636V444.61C193.166 444.16 193.646 443.85 194.076 443.68C194.516 443.51 194.936 443.425 195.336 443.425C196.026 443.425 196.551 443.645 196.911 444.085C197.281 444.515 197.466 445.13 197.466 445.93V451H196.236V446.11C196.236 445.09 195.836 444.58 195.036 444.58ZM204.115 450.73C203.555 451.01 202.96 451.15 202.33 451.15C201.79 451.15 201.365 451.04 201.055 450.82C200.755 450.6 200.54 450.305 200.41 449.935C200.29 449.565 200.23 449.155 200.23 448.705V444.655H198.94V443.575H200.23V441.505H201.46V443.575H203.89V444.655H201.46V448.66C201.46 449.18 201.545 449.54 201.715 449.74C201.895 449.93 202.17 450.025 202.54 450.025C202.72 450.025 202.905 450.005 203.095 449.965C203.295 449.915 203.51 449.835 203.74 449.725L204.115 450.73ZM206.468 449.635V449.92C206.468 450.65 206.378 451.345 206.198 452.005C206.018 452.665 205.693 453.37 205.223 454.12L204.413 453.67C204.663 453.19 204.843 452.75 204.953 452.35C205.073 451.96 205.148 451.55 205.178 451.12C205.218 450.7 205.238 450.205 205.238 449.635H206.468ZM214.855 451.15C214.295 451.15 213.715 451.035 213.115 450.805V454.195H211.885V443.575H213.055V444.625C213.515 444.185 213.935 443.875 214.315 443.695C214.695 443.515 215.085 443.425 215.485 443.425C216.275 443.425 216.88 443.725 217.3 444.325C217.73 444.925 217.945 445.77 217.945 446.86V447.73C217.945 448.77 217.68 449.6 217.15 450.22C216.63 450.84 215.865 451.15 214.855 451.15ZM215.185 444.58C214.895 444.58 214.595 444.655 214.285 444.805C213.975 444.955 213.585 445.26 213.115 445.72V449.68C213.405 449.81 213.685 449.905 213.955 449.965C214.225 450.015 214.49 450.04 214.75 450.04C215.43 450.04 215.92 449.835 216.22 449.425C216.52 449.005 216.67 448.44 216.67 447.73V446.86C216.67 446.08 216.545 445.505 216.295 445.135C216.055 444.765 215.685 444.58 215.185 444.58ZM224.12 444.655C223.67 444.655 223.23 444.735 222.8 444.895C222.38 445.055 221.93 445.36 221.45 445.81V451H220.22V443.575H221.39V444.775C221.9 444.275 222.365 443.925 222.785 443.725C223.215 443.525 223.66 443.425 224.12 443.425V444.655ZM231.608 446.83V447.73C231.608 448.79 231.333 449.625 230.783 450.235C230.243 450.845 229.468 451.15 228.458 451.15C227.458 451.15 226.683 450.845 226.133 450.235C225.583 449.625 225.308 448.79 225.308 447.73V446.83C225.308 445.79 225.578 444.965 226.118 444.355C226.668 443.735 227.448 443.425 228.458 443.425C229.468 443.425 230.243 443.735 230.783 444.355C231.333 444.965 231.608 445.79 231.608 446.83ZM230.333 446.83C230.333 446.12 230.173 445.565 229.853 445.165C229.533 444.755 229.068 444.55 228.458 444.55C227.858 444.55 227.393 444.755 227.063 445.165C226.743 445.565 226.583 446.12 226.583 446.83V447.73C226.583 448.47 226.743 449.04 227.063 449.44C227.393 449.84 227.858 450.04 228.458 450.04C229.068 450.04 229.533 449.84 229.853 449.44C230.173 449.04 230.333 448.47 230.333 447.73V446.83ZM239.273 451.075C238.813 451.075 238.443 450.97 238.163 450.76C237.893 450.55 237.703 450.29 237.593 449.98C237.103 450.41 236.658 450.715 236.258 450.895C235.858 451.065 235.458 451.15 235.058 451.15C234.408 451.15 233.928 450.94 233.618 450.52C233.308 450.1 233.153 449.585 233.153 448.975C233.153 448.565 233.228 448.2 233.378 447.88C233.528 447.56 233.783 447.31 234.143 447.13C234.503 446.94 234.988 446.845 235.598 446.845C235.868 446.845 236.163 446.865 236.483 446.905C236.803 446.935 237.128 446.975 237.458 447.025V446.02C237.458 445.46 237.333 445.08 237.083 444.88C236.843 444.67 236.488 444.565 236.018 444.565C235.378 444.565 234.663 444.74 233.873 445.09L233.483 444.07C233.943 443.86 234.383 443.7 234.803 443.59C235.223 443.48 235.648 443.425 236.078 443.425C236.778 443.425 237.313 443.54 237.683 443.77C238.053 444 238.308 444.305 238.448 444.685C238.588 445.065 238.658 445.48 238.658 445.93V449.14C238.658 449.37 238.703 449.565 238.793 449.725C238.883 449.875 239.063 449.95 239.333 449.95H239.498V451.075H239.273ZM234.368 448.96C234.368 449.3 234.448 449.575 234.608 449.785C234.768 449.995 234.998 450.1 235.298 450.1C235.558 450.1 235.858 450.025 236.198 449.875C236.538 449.715 236.958 449.4 237.458 448.93V447.985C236.778 447.875 236.178 447.82 235.658 447.82C235.198 447.82 234.868 447.915 234.668 448.105C234.468 448.295 234.368 448.58 234.368 448.96ZM242.111 446.845V447.73C242.111 448.49 242.251 449.065 242.531 449.455C242.811 449.835 243.256 450.025 243.866 450.025C244.466 450.025 245.111 449.87 245.801 449.56L246.176 450.595C245.356 450.965 244.561 451.15 243.791 451.15C242.831 451.15 242.101 450.845 241.601 450.235C241.101 449.625 240.851 448.79 240.851 447.73V446.845C240.851 445.785 241.101 444.95 241.601 444.34C242.101 443.73 242.831 443.425 243.791 443.425C244.151 443.425 244.521 443.475 244.901 443.575C245.291 443.665 245.681 443.795 246.071 443.965L245.696 445.015C245.366 444.875 245.046 444.765 244.736 444.685C244.436 444.605 244.146 444.565 243.866 444.565C243.256 444.565 242.811 444.76 242.531 445.15C242.251 445.53 242.111 446.095 242.111 446.845ZM252.059 450.73C251.499 451.01 250.904 451.15 250.274 451.15C249.734 451.15 249.309 451.04 248.999 450.82C248.699 450.6 248.484 450.305 248.354 449.935C248.234 449.565 248.174 449.155 248.174 448.705V444.655H246.884V443.575H248.174V441.505H249.404V443.575H251.834V444.655H249.404V448.66C249.404 449.18 249.489 449.54 249.659 449.74C249.839 449.93 250.114 450.025 250.484 450.025C250.664 450.025 250.849 450.005 251.039 449.965C251.239 449.915 251.454 449.835 251.684 449.725L252.059 450.73ZM254.982 441.76H253.602V440.38H254.982V441.76ZM254.907 451H253.677V443.575H254.907V451ZM262.989 443.575L260.364 451H259.209L256.554 443.575H257.829L259.074 447.19L259.824 449.455L260.559 447.19L261.774 443.575H262.989ZM269.873 450.565C269.423 450.785 268.973 450.935 268.523 451.015C268.073 451.105 267.658 451.15 267.278 451.15C266.208 451.15 265.408 450.845 264.878 450.235C264.358 449.625 264.098 448.79 264.098 447.73V446.83C264.098 445.8 264.358 444.975 264.878 444.355C265.408 443.735 266.153 443.425 267.113 443.425C267.623 443.425 268.088 443.53 268.508 443.74C268.938 443.94 269.278 444.25 269.528 444.67C269.788 445.08 269.918 445.61 269.918 446.26C269.918 446.68 269.858 447.16 269.738 447.7H265.313V447.73C265.313 448.49 265.468 449.065 265.778 449.455C266.098 449.845 266.608 450.04 267.308 450.04C267.628 450.04 267.978 450 268.358 449.92C268.748 449.84 269.128 449.715 269.498 449.545L269.873 450.565ZM267.113 444.505C266.533 444.505 266.093 444.695 265.793 445.075C265.503 445.445 265.343 445.97 265.313 446.65H268.673C268.703 446.47 268.718 446.3 268.718 446.14C268.718 445.58 268.558 445.17 268.238 444.91C267.928 444.64 267.553 444.505 267.113 444.505ZM278.883 444.58C278.603 444.58 278.273 444.65 277.893 444.79C277.523 444.93 277.073 445.215 276.543 445.645V451H275.313V439.9H276.543V444.565C277.063 444.125 277.533 443.825 277.953 443.665C278.373 443.505 278.783 443.425 279.183 443.425C279.873 443.425 280.398 443.645 280.758 444.085C281.128 444.515 281.313 445.13 281.313 445.93V451H280.083V446.11C280.083 445.09 279.683 444.58 278.883 444.58ZM289.268 450.565C288.818 450.785 288.368 450.935 287.918 451.015C287.468 451.105 287.053 451.15 286.673 451.15C285.603 451.15 284.803 450.845 284.273 450.235C283.753 449.625 283.493 448.79 283.493 447.73V446.83C283.493 445.8 283.753 444.975 284.273 444.355C284.803 443.735 285.548 443.425 286.508 443.425C287.018 443.425 287.483 443.53 287.903 443.74C288.333 443.94 288.673 444.25 288.923 444.67C289.183 445.08 289.313 445.61 289.313 446.26C289.313 446.68 289.253 447.16 289.133 447.7H284.708V447.73C284.708 448.49 284.863 449.065 285.173 449.455C285.493 449.845 286.003 450.04 286.703 450.04C287.023 450.04 287.373 450 287.753 449.92C288.143 449.84 288.523 449.715 288.893 449.545L289.268 450.565ZM286.508 444.505C285.928 444.505 285.488 444.695 285.188 445.075C284.898 445.445 284.738 445.97 284.708 446.65H288.068C288.098 446.47 288.113 446.3 288.113 446.14C288.113 445.58 287.953 445.17 287.633 444.91C287.323 444.64 286.948 444.505 286.508 444.505ZM296.871 451.075C296.411 451.075 296.041 450.97 295.761 450.76C295.491 450.55 295.301 450.29 295.191 449.98C294.701 450.41 294.256 450.715 293.856 450.895C293.456 451.065 293.056 451.15 292.656 451.15C292.006 451.15 291.526 450.94 291.216 450.52C290.906 450.1 290.751 449.585 290.751 448.975C290.751 448.565 290.826 448.2 290.976 447.88C291.126 447.56 291.381 447.31 291.741 447.13C292.101 446.94 292.586 446.845 293.196 446.845C293.466 446.845 293.761 446.865 294.081 446.905C294.401 446.935 294.726 446.975 295.056 447.025V446.02C295.056 445.46 294.931 445.08 294.681 444.88C294.441 444.67 294.086 444.565 293.616 444.565C292.976 444.565 292.261 444.74 291.471 445.09L291.081 444.07C291.541 443.86 291.981 443.7 292.401 443.59C292.821 443.48 293.246 443.425 293.676 443.425C294.376 443.425 294.911 443.54 295.281 443.77C295.651 444 295.906 444.305 296.046 444.685C296.186 445.065 296.256 445.48 296.256 445.93V449.14C296.256 449.37 296.301 449.565 296.391 449.725C296.481 449.875 296.661 449.95 296.931 449.95H297.096V451.075H296.871ZM291.966 448.96C291.966 449.3 292.046 449.575 292.206 449.785C292.366 449.995 292.596 450.1 292.896 450.1C293.156 450.1 293.456 450.025 293.796 449.875C294.136 449.715 294.556 449.4 295.056 448.93V447.985C294.376 447.875 293.776 447.82 293.256 447.82C292.796 447.82 292.466 447.915 292.266 448.105C292.066 448.295 291.966 448.58 291.966 448.96ZM298.824 449.2V439.9H300.054V449.14C300.054 449.41 300.094 449.615 300.174 449.755C300.264 449.885 300.439 449.95 300.699 449.95H300.939V451.075H300.594C299.934 451.075 299.474 450.9 299.214 450.55C298.954 450.2 298.824 449.75 298.824 449.2ZM306.874 450.73C306.314 451.01 305.719 451.15 305.089 451.15C304.549 451.15 304.124 451.04 303.814 450.82C303.514 450.6 303.299 450.305 303.169 449.935C303.049 449.565 302.989 449.155 302.989 448.705V444.655H301.699V443.575H302.989V441.505H304.219V443.575H306.649V444.655H304.219V448.66C304.219 449.18 304.304 449.54 304.474 449.74C304.654 449.93 304.929 450.025 305.299 450.025C305.479 450.025 305.664 450.005 305.854 449.965C306.054 449.915 306.269 449.835 306.499 449.725L306.874 450.73ZM312.062 444.58C311.782 444.58 311.452 444.65 311.072 444.79C310.702 444.93 310.252 445.215 309.722 445.645V451H308.492V439.9H309.722V444.565C310.242 444.125 310.712 443.825 311.132 443.665C311.552 443.505 311.962 443.425 312.362 443.425C313.052 443.425 313.577 443.645 313.937 444.085C314.307 444.515 314.492 445.13 314.492 445.93V451H313.262V446.11C313.262 445.09 312.862 444.58 312.062 444.58ZM321.633 441.76H320.253V440.38H321.633V441.76ZM321.558 451H320.328V443.575H321.558V451ZM327.78 444.58C327.5 444.58 327.17 444.65 326.79 444.79C326.42 444.93 325.97 445.215 325.44 445.645V451H324.21V443.575H325.38V444.61C325.91 444.16 326.39 443.85 326.82 443.68C327.26 443.51 327.68 443.425 328.08 443.425C328.77 443.425 329.295 443.645 329.655 444.085C330.025 444.515 330.21 445.13 330.21 445.93V451H328.98V446.11C328.98 445.09 328.58 444.58 327.78 444.58ZM334.594 450.055C335.594 450.055 336.094 449.715 336.094 449.035C336.094 448.745 336.004 448.515 335.824 448.345C335.644 448.175 335.314 448.03 334.834 447.91L334.009 447.7C333.399 447.55 332.944 447.29 332.644 446.92C332.344 446.54 332.194 446.09 332.194 445.57C332.194 445.19 332.279 444.84 332.449 444.52C332.619 444.19 332.889 443.925 333.259 443.725C333.629 443.525 334.109 443.425 334.699 443.425C335.079 443.425 335.464 443.47 335.854 443.56C336.254 443.64 336.659 443.78 337.069 443.98L336.679 445.015C335.949 444.685 335.289 444.52 334.699 444.52C333.829 444.52 333.394 444.845 333.394 445.495C333.394 445.745 333.474 445.96 333.634 446.14C333.794 446.32 334.094 446.465 334.534 446.575L335.359 446.785C336.019 446.945 336.504 447.205 336.814 447.565C337.124 447.925 337.279 448.39 337.279 448.96C337.279 449.37 337.189 449.745 337.009 450.085C336.839 450.415 336.559 450.675 336.169 450.865C335.789 451.055 335.274 451.15 334.624 451.15C334.194 451.15 333.764 451.105 333.334 451.015C332.914 450.925 332.479 450.78 332.029 450.58L332.359 449.56C332.789 449.73 333.179 449.855 333.529 449.935C333.879 450.015 334.234 450.055 334.594 450.055ZM340.544 441.76H339.164V440.38H340.544V441.76ZM340.469 451H339.239V443.575H340.469V451ZM349.061 451.93C349.061 452.66 348.761 453.245 348.161 453.685C347.571 454.125 346.756 454.345 345.716 454.345C345.196 454.345 344.651 454.275 344.081 454.135C343.521 453.995 342.991 453.77 342.491 453.46L342.911 452.5C343.411 452.78 343.891 452.975 344.351 453.085C344.821 453.205 345.276 453.265 345.716 453.265C346.396 453.265 346.921 453.155 347.291 452.935C347.661 452.715 347.846 452.42 347.846 452.05C347.846 451.78 347.756 451.57 347.576 451.42C347.396 451.28 347.106 451.21 346.706 451.21H344.981C344.331 451.21 343.861 451.055 343.571 450.745C343.281 450.435 343.136 450.095 343.136 449.725C343.136 449.465 343.196 449.21 343.316 448.96C343.436 448.7 343.606 448.445 343.826 448.195C343.476 447.985 343.196 447.7 342.986 447.34C342.776 446.97 342.671 446.525 342.671 446.005C342.671 445.435 342.791 444.96 343.031 444.58C343.281 444.2 343.611 443.915 344.021 443.725C344.431 443.525 344.891 443.425 345.401 443.425H345.656C346.006 443.425 346.326 443.475 346.616 443.575H349.286V444.67L347.666 444.445C347.876 444.625 348.046 444.85 348.176 445.12C348.306 445.38 348.371 445.7 348.371 446.08C348.371 446.62 348.246 447.075 347.996 447.445C347.756 447.815 347.431 448.1 347.021 448.3C346.611 448.49 346.156 448.585 345.656 448.585H345.401C345.271 448.585 345.146 448.58 345.026 448.57C344.906 448.55 344.786 448.53 344.666 448.51C344.376 448.83 344.231 449.145 344.231 449.455C344.231 449.855 344.511 450.055 345.071 450.055H346.751C347.471 450.055 348.036 450.215 348.446 450.535C348.856 450.855 349.061 451.32 349.061 451.93ZM345.656 447.52C346.046 447.52 346.391 447.395 346.691 447.145C346.991 446.895 347.141 446.515 347.141 446.005C347.141 445.505 346.991 445.13 346.691 444.88C346.391 444.62 346.046 444.49 345.656 444.49H345.401C345.001 444.49 344.651 444.62 344.351 444.88C344.051 445.13 343.901 445.505 343.901 446.005C343.901 446.515 344.051 446.895 344.351 447.145C344.651 447.395 345.001 447.52 345.401 447.52H345.656ZM354.484 444.58C354.204 444.58 353.874 444.65 353.494 444.79C353.124 444.93 352.674 445.215 352.144 445.645V451H350.914V439.9H352.144V444.565C352.664 444.125 353.134 443.825 353.554 443.665C353.974 443.505 354.384 443.425 354.784 443.425C355.474 443.425 355.999 443.645 356.359 444.085C356.729 444.515 356.914 445.13 356.914 445.93V451H355.684V446.11C355.684 445.09 355.284 444.58 354.484 444.58ZM363.563 450.73C363.003 451.01 362.408 451.15 361.778 451.15C361.238 451.15 360.813 451.04 360.503 450.82C360.203 450.6 359.988 450.305 359.858 449.935C359.738 449.565 359.678 449.155 359.678 448.705V444.655H358.388V443.575H359.678V441.505H360.908V443.575H363.338V444.655H360.908V448.66C360.908 449.18 360.993 449.54 361.163 449.74C361.343 449.93 361.618 450.025 361.988 450.025C362.168 450.025 362.353 450.005 362.543 449.965C362.743 449.915 362.958 449.835 363.188 449.725L363.563 450.73ZM366.996 450.055C367.996 450.055 368.496 449.715 368.496 449.035C368.496 448.745 368.406 448.515 368.226 448.345C368.046 448.175 367.716 448.03 367.236 447.91L366.411 447.7C365.801 447.55 365.346 447.29 365.046 446.92C364.746 446.54 364.596 446.09 364.596 445.57C364.596 445.19 364.681 444.84 364.851 444.52C365.021 444.19 365.291 443.925 365.661 443.725C366.031 443.525 366.511 443.425 367.101 443.425C367.481 443.425 367.866 443.47 368.256 443.56C368.656 443.64 369.061 443.78 369.471 443.98L369.081 445.015C368.351 444.685 367.691 444.52 367.101 444.52C366.231 444.52 365.796 444.845 365.796 445.495C365.796 445.745 365.876 445.96 366.036 446.14C366.196 446.32 366.496 446.465 366.936 446.575L367.761 446.785C368.421 446.945 368.906 447.205 369.216 447.565C369.526 447.925 369.681 448.39 369.681 448.96C369.681 449.37 369.591 449.745 369.411 450.085C369.241 450.415 368.961 450.675 368.571 450.865C368.191 451.055 367.676 451.15 367.026 451.15C366.596 451.15 366.166 451.105 365.736 451.015C365.316 450.925 364.881 450.78 364.431 450.58L364.761 449.56C365.191 449.73 365.581 449.855 365.931 449.935C366.281 450.015 366.636 450.055 366.996 450.055Z" fill="#B7A5FF"/>
<path d="M204.703 469.075C204.243 469.075 203.873 468.97 203.593 468.76C203.323 468.55 203.133 468.29 203.023 467.98C202.533 468.41 202.088 468.715 201.688 468.895C201.288 469.065 200.888 469.15 200.488 469.15C199.838 469.15 199.358 468.94 199.048 468.52C198.738 468.1 198.583 467.585 198.583 466.975C198.583 466.565 198.658 466.2 198.808 465.88C198.958 465.56 199.213 465.31 199.573 465.13C199.933 464.94 200.418 464.845 201.028 464.845C201.298 464.845 201.593 464.865 201.913 464.905C202.233 464.935 202.558 464.975 202.888 465.025V464.02C202.888 463.46 202.763 463.08 202.513 462.88C202.273 462.67 201.918 462.565 201.448 462.565C200.808 462.565 200.093 462.74 199.303 463.09L198.913 462.07C199.373 461.86 199.813 461.7 200.233 461.59C200.653 461.48 201.078 461.425 201.508 461.425C202.208 461.425 202.743 461.54 203.113 461.77C203.483 462 203.738 462.305 203.878 462.685C204.018 463.065 204.088 463.48 204.088 463.93V467.14C204.088 467.37 204.133 467.565 204.223 467.725C204.313 467.875 204.493 467.95 204.763 467.95H204.928V469.075H204.703ZM199.798 466.96C199.798 467.3 199.878 467.575 200.038 467.785C200.198 467.995 200.428 468.1 200.728 468.1C200.988 468.1 201.288 468.025 201.628 467.875C201.968 467.715 202.388 467.4 202.888 466.93V465.985C202.208 465.875 201.608 465.82 201.088 465.82C200.628 465.82 200.298 465.915 200.098 466.105C199.898 466.295 199.798 466.58 199.798 466.96ZM210.751 468.73C210.191 469.01 209.596 469.15 208.966 469.15C208.426 469.15 208.001 469.04 207.691 468.82C207.391 468.6 207.176 468.305 207.046 467.935C206.926 467.565 206.866 467.155 206.866 466.705V462.655H205.576V461.575H206.866V459.505H208.096V461.575H210.526V462.655H208.096V466.66C208.096 467.18 208.181 467.54 208.351 467.74C208.531 467.93 208.806 468.025 209.176 468.025C209.356 468.025 209.541 468.005 209.731 467.965C209.931 467.915 210.146 467.835 210.376 467.725L210.751 468.73ZM218.17 469.75C217.85 470.65 217.455 471.305 216.985 471.715C216.525 472.135 215.88 472.345 215.05 472.345V471.13C215.39 471.12 215.68 471.075 215.92 470.995C216.17 470.915 216.39 470.75 216.58 470.5C216.78 470.26 216.97 469.9 217.15 469.42L217.3 469.045L214.63 461.575H215.89L217.135 465.19L217.9 467.5L218.635 465.19L219.85 461.575H221.065L218.17 469.75ZM228.444 464.83V465.73C228.444 466.79 228.169 467.625 227.619 468.235C227.079 468.845 226.304 469.15 225.294 469.15C224.294 469.15 223.519 468.845 222.969 468.235C222.419 467.625 222.144 466.79 222.144 465.73V464.83C222.144 463.79 222.414 462.965 222.954 462.355C223.504 461.735 224.284 461.425 225.294 461.425C226.304 461.425 227.079 461.735 227.619 462.355C228.169 462.965 228.444 463.79 228.444 464.83ZM227.169 464.83C227.169 464.12 227.009 463.565 226.689 463.165C226.369 462.755 225.904 462.55 225.294 462.55C224.694 462.55 224.229 462.755 223.899 463.165C223.579 463.565 223.419 464.12 223.419 464.83V465.73C223.419 466.47 223.579 467.04 223.899 467.44C224.229 467.84 224.694 468.04 225.294 468.04C225.904 468.04 226.369 467.84 226.689 467.44C227.009 467.04 227.169 466.47 227.169 465.73V464.83ZM235.254 469V467.95C234.734 468.4 234.269 468.715 233.859 468.895C233.449 469.065 233.039 469.15 232.629 469.15C231.969 469.15 231.464 468.935 231.114 468.505C230.764 468.065 230.589 467.45 230.589 466.66V461.575H231.819V466.48C231.819 467 231.909 467.385 232.089 467.635C232.279 467.875 232.559 467.995 232.929 467.995C233.209 467.995 233.524 467.925 233.874 467.785C234.224 467.645 234.659 467.365 235.179 466.945V461.575H236.409V469H235.254ZM242.958 462.655C242.508 462.655 242.068 462.735 241.638 462.895C241.218 463.055 240.768 463.36 240.288 463.81V469H239.058V461.575H240.228V462.775C240.738 462.275 241.203 461.925 241.623 461.725C242.053 461.525 242.498 461.425 242.958 461.425V462.655ZM249.303 460.48V461.575H253.908V469H252.678V462.655H249.303V469H248.073V462.655H246.783V461.575H248.073V460.495C248.073 460.005 248.163 459.555 248.343 459.145C248.533 458.725 248.843 458.39 249.273 458.14C249.703 457.88 250.283 457.75 251.013 457.75C251.403 457.75 251.823 457.795 252.273 457.885C252.733 457.975 253.208 458.13 253.698 458.35L253.263 459.325C252.833 459.155 252.428 459.04 252.048 458.98C251.678 458.91 251.343 458.875 251.043 458.875C250.493 458.875 250.063 459.005 249.753 459.265C249.453 459.515 249.303 459.92 249.303 460.48ZM260.133 462.58C259.853 462.58 259.523 462.65 259.143 462.79C258.773 462.93 258.323 463.215 257.793 463.645V469H256.563V461.575H257.733V462.61C258.263 462.16 258.743 461.85 259.173 461.68C259.613 461.51 260.033 461.425 260.433 461.425C261.123 461.425 261.648 461.645 262.008 462.085C262.378 462.515 262.563 463.13 262.563 463.93V469H261.333V464.11C261.333 463.09 260.933 462.58 260.133 462.58ZM271.073 469.93C271.073 470.66 270.773 471.245 270.173 471.685C269.583 472.125 268.768 472.345 267.728 472.345C267.208 472.345 266.663 472.275 266.093 472.135C265.533 471.995 265.003 471.77 264.503 471.46L264.923 470.5C265.423 470.78 265.903 470.975 266.363 471.085C266.833 471.205 267.288 471.265 267.728 471.265C268.408 471.265 268.933 471.155 269.303 470.935C269.673 470.715 269.858 470.42 269.858 470.05C269.858 469.78 269.768 469.57 269.588 469.42C269.408 469.28 269.118 469.21 268.718 469.21H266.993C266.343 469.21 265.873 469.055 265.583 468.745C265.293 468.435 265.148 468.095 265.148 467.725C265.148 467.465 265.208 467.21 265.328 466.96C265.448 466.7 265.618 466.445 265.838 466.195C265.488 465.985 265.208 465.7 264.998 465.34C264.788 464.97 264.683 464.525 264.683 464.005C264.683 463.435 264.803 462.96 265.043 462.58C265.293 462.2 265.623 461.915 266.033 461.725C266.443 461.525 266.903 461.425 267.413 461.425H267.667C268.018 461.425 268.338 461.475 268.628 461.575H271.298V462.67L269.678 462.445C269.888 462.625 270.058 462.85 270.188 463.12C270.318 463.38 270.383 463.7 270.383 464.08C270.383 464.62 270.258 465.075 270.008 465.445C269.768 465.815 269.443 466.1 269.033 466.3C268.623 466.49 268.168 466.585 267.667 466.585H267.413C267.283 466.585 267.158 466.58 267.038 466.57C266.918 466.55 266.798 466.53 266.678 466.51C266.388 466.83 266.243 467.145 266.243 467.455C266.243 467.855 266.523 468.055 267.083 468.055H268.763C269.483 468.055 270.048 468.215 270.458 468.535C270.868 468.855 271.073 469.32 271.073 469.93ZM267.667 465.52C268.058 465.52 268.403 465.395 268.703 465.145C269.003 464.895 269.153 464.515 269.153 464.005C269.153 463.505 269.003 463.13 268.703 462.88C268.403 462.62 268.058 462.49 267.667 462.49H267.413C267.013 462.49 266.663 462.62 266.363 462.88C266.063 463.13 265.913 463.505 265.913 464.005C265.913 464.515 266.063 464.895 266.363 465.145C266.663 465.395 267.013 465.52 267.413 465.52H267.667ZM278.31 468.565C277.86 468.785 277.41 468.935 276.96 469.015C276.51 469.105 276.095 469.15 275.715 469.15C274.645 469.15 273.845 468.845 273.315 468.235C272.795 467.625 272.535 466.79 272.535 465.73V464.83C272.535 463.8 272.795 462.975 273.315 462.355C273.845 461.735 274.59 461.425 275.55 461.425C276.06 461.425 276.525 461.53 276.945 461.74C277.375 461.94 277.715 462.25 277.965 462.67C278.225 463.08 278.355 463.61 278.355 464.26C278.355 464.68 278.295 465.16 278.175 465.7H273.75V465.73C273.75 466.49 273.905 467.065 274.215 467.455C274.535 467.845 275.045 468.04 275.745 468.04C276.065 468.04 276.415 468 276.795 467.92C277.185 467.84 277.565 467.715 277.935 467.545L278.31 468.565ZM275.55 462.505C274.97 462.505 274.53 462.695 274.23 463.075C273.94 463.445 273.78 463.97 273.75 464.65H277.11C277.14 464.47 277.155 464.3 277.155 464.14C277.155 463.58 276.995 463.17 276.675 462.91C276.365 462.64 275.99 462.505 275.55 462.505ZM284.384 462.655C283.934 462.655 283.494 462.735 283.064 462.895C282.644 463.055 282.194 463.36 281.714 463.81V469H280.484V461.575H281.654V462.775C282.164 462.275 282.629 461.925 283.049 461.725C283.479 461.525 283.924 461.425 284.384 461.425V462.655ZM290.072 468.73C289.512 469.01 288.917 469.15 288.287 469.15C287.747 469.15 287.322 469.04 287.012 468.82C286.712 468.6 286.497 468.305 286.367 467.935C286.247 467.565 286.187 467.155 286.187 466.705V462.655H284.897V461.575H286.187V459.505H287.417V461.575H289.847V462.655H287.417V466.66C287.417 467.18 287.502 467.54 287.672 467.74C287.852 467.93 288.127 468.025 288.497 468.025C288.677 468.025 288.862 468.005 289.052 467.965C289.252 467.915 289.467 467.835 289.697 467.725L290.072 468.73ZM292.995 459.76H291.615V458.38H292.995V459.76ZM292.92 469H291.69V461.575H292.92V469ZM298.542 469.15C297.982 469.15 297.402 469.035 296.802 468.805V472.195H295.572V461.575H296.742V462.625C297.202 462.185 297.622 461.875 298.002 461.695C298.382 461.515 298.772 461.425 299.172 461.425C299.962 461.425 300.567 461.725 300.987 462.325C301.417 462.925 301.632 463.77 301.632 464.86V465.73C301.632 466.77 301.367 467.6 300.837 468.22C300.317 468.84 299.552 469.15 298.542 469.15ZM298.872 462.58C298.582 462.58 298.282 462.655 297.972 462.805C297.662 462.955 297.272 463.26 296.802 463.72V467.68C297.092 467.81 297.372 467.905 297.642 467.965C297.912 468.015 298.177 468.04 298.437 468.04C299.117 468.04 299.607 467.835 299.907 467.425C300.207 467.005 300.357 466.44 300.357 465.73V464.86C300.357 464.08 300.232 463.505 299.982 463.135C299.742 462.765 299.372 462.58 298.872 462.58ZM305.722 468.055C306.722 468.055 307.222 467.715 307.222 467.035C307.222 466.745 307.132 466.515 306.952 466.345C306.772 466.175 306.442 466.03 305.962 465.91L305.137 465.7C304.527 465.55 304.072 465.29 303.772 464.92C303.472 464.54 303.322 464.09 303.322 463.57C303.322 463.19 303.407 462.84 303.577 462.52C303.747 462.19 304.017 461.925 304.387 461.725C304.757 461.525 305.237 461.425 305.827 461.425C306.207 461.425 306.592 461.47 306.982 461.56C307.382 461.64 307.787 461.78 308.197 461.98L307.807 463.015C307.077 462.685 306.417 462.52 305.827 462.52C304.957 462.52 304.522 462.845 304.522 463.495C304.522 463.745 304.602 463.96 304.762 464.14C304.922 464.32 305.222 464.465 305.662 464.575L306.487 464.785C307.147 464.945 307.632 465.205 307.942 465.565C308.252 465.925 308.407 466.39 308.407 466.96C308.407 467.37 308.317 467.745 308.137 468.085C307.967 468.415 307.687 468.675 307.297 468.865C306.917 469.055 306.402 469.15 305.752 469.15C305.322 469.15 304.892 469.105 304.462 469.015C304.042 468.925 303.607 468.78 303.157 468.58L303.487 467.56C303.917 467.73 304.307 467.855 304.657 467.935C305.007 468.015 305.362 468.055 305.722 468.055Z" fill="white"/>
<line x1="309.49" y1="127.157" x2="148.49" y2="50.1575" stroke="#B7A6FF" stroke-width="7"/>
<mask id="mask0_1_2" style="mask-type:alpha" maskUnits="userSpaceOnUse" x="144" y="88" width="167" height="100">
<rect x="144" y="88" width="167" height="100" fill="#D9D9D9"/>
</mask>
<g mask="url(#mask0_1_2)">
<path d="M299.435 138.547L287.152 138.309L274.868 138.091L274.26 138.08L274.033 138.672L268.323 153.532L261.631 139.643L253.77 123.426L252.377 120.554L250.965 123.454L247.331 130.911L244.196 137.368L238.517 137.31L231.756 137.256L230.265 137.243L229.939 138.716L224.716 162.311L222.154 153.07L217.485 136.363L212.793 119.663L208.076 102.97L206.389 97L204.335 102.837L201.174 111.826L198.039 120.824L194.933 129.833L192.206 137.821L173.506 137.991L169.092 134.034L164.254 129.709L163.193 128.761L162.503 129.951L159.983 134.29L157.719 138.207L150.693 138.383L143.129 138.594L139.346 138.709L135.564 138.834C133.043 138.926 130.521 139.005 128 139.112C130.521 139.22 133.043 139.299 135.564 139.391L139.346 139.515L143.129 139.631L150.693 139.842L158.257 140.031L158.751 140.043L159.042 139.589L161.752 135.365L163.689 132.333L167.368 135.889L172.04 140.392L172.419 140.758L172.983 140.763L193.333 140.948L194.417 140.957L194.811 139.906L198.158 130.985L201.478 122.053L204.769 113.111L205.934 109.916L208.949 120.737L213.628 137.442L218.331 154.138L223.067 170.826L225.182 178.28L226.818 170.718L233.259 140.956L238.518 140.913L245.279 140.845L246.396 140.834L246.848 139.851L250.321 132.319L252.45 127.686L259.183 140.857L267.426 156.885L268.632 159.231L269.502 156.773L275.496 139.857L287.148 139.714L299.431 139.542L311.715 139.343C315.81 139.266 319.905 139.199 324 139.11C319.906 138.997 315.812 138.909 311.718 138.81L299.434 138.543L299.435 138.547Z" fill="white"/>
</g>
<line x1="308.5" y1="156" x2="308.5" y2="122" stroke="#B7A6FF" stroke-width="5"/>
<line x1="146.5" y1="233" x2="146.5" y2="47" stroke="#B7A6FF" stroke-width="7"/>
<line y1="-3.5" x2="178.466" y2="-3.5" transform="matrix(-0.902134 0.431456 0.431456 0.902134 311 156)" stroke="#B7A6FF" stroke-width="7"/>
<path d="M322 129L322 151" stroke="white" stroke-linecap="round"/>
<path d="M333 139.45L311 139.45" stroke="white" stroke-linecap="round"/>
<path d="M344 129L344 151" stroke="white" stroke-linecap="round"/>
<path d="M355 139.45L333 139.45" stroke="white" stroke-linecap="round"/>
<path d="M366 129L366 151" stroke="white" stroke-linecap="round"/>
<path d="M354.995 139.45H366.005" stroke="white" stroke-linecap="round"/>
<path d="M306 50L306 356" stroke="#B7A6FF" stroke-width="10" stroke-linecap="round"/>
<path d="M380 125.5L306 125.5" stroke="#B7A6FF" stroke-width="7" stroke-linecap="round"/>
<path d="M380 154.5H306" stroke="#B7A6FF" stroke-width="7" stroke-linecap="round"/>
<circle cx="380" cy="126" r="8" fill="#B7A5FF"/>
<circle cx="380" cy="155" r="8" fill="#B7A5FF"/>
<path d="M139.962 414.217L145.366 410.943C144.327 408.726 142.387 407.081 139.546 406.007V403.824C139.546 401.018 140.464 398.541 142.3 396.394C144.171 394.211 146.734 393.12 149.991 393.12C153.732 393.12 156.4 394.419 157.993 397.017V389.275H162.046V393.64H167.866V397.121H162.046V427H157.993V407.566L139.962 418.634V414.217ZM143.495 403.876C145.747 404.985 147.393 406.717 148.432 409.073L157.837 403.305C157.526 401.295 156.746 399.702 155.499 398.524C154.286 397.312 152.624 396.705 150.51 396.705C148.293 396.705 146.561 397.381 145.314 398.732C144.102 400.048 143.495 401.763 143.495 403.876ZM195.158 397.121H189.286V427H185.337L169.073 414.581V410.06C171.359 407.947 173.94 406.059 176.815 404.396C179.691 402.733 182.531 401.555 185.337 400.862V397.121H165.799V393.64H195.158V397.121ZM173.645 423.518C174.2 424.038 174.477 424.679 174.477 425.441C174.477 426.203 174.2 426.844 173.645 427.364C173.126 427.883 172.468 428.143 171.671 428.143C170.874 428.143 170.216 427.883 169.696 427.364C169.211 426.844 168.969 426.203 168.969 425.441C168.969 424.679 169.229 424.038 169.748 423.518C170.268 422.964 170.909 422.687 171.671 422.687C172.433 422.687 173.091 422.964 173.645 423.518ZM185.337 422.323V404.656C180.938 406.076 176.677 408.622 172.554 412.294L185.337 422.323ZM208.845 397.121H202.973V427H198.972V401.33C198.972 399.979 198.729 398.94 198.244 398.212C197.759 397.485 196.893 397.121 195.646 397.121H193.1V393.64H195.802C197.465 393.64 198.677 394.384 199.44 395.874C199.162 394.28 199.024 392.6 199.024 390.834V389.275H202.973V393.64H208.845V397.121ZM240.267 397.121H234.083V427H230.03V421.856C230.03 418.842 229.268 416.486 227.744 414.789C226.254 413.091 224.141 412.242 221.404 412.242C219.464 412.242 217.905 412.745 216.728 413.749C215.584 414.719 215.013 416.105 215.013 417.906C215.013 419.708 215.567 421.094 216.676 422.063C217.784 422.999 219.204 423.466 220.937 423.466C221.803 423.466 222.79 423.38 223.898 423.207V426.688C222.79 426.896 221.681 427 220.573 427C217.732 427 215.411 426.221 213.61 424.662C211.808 423.068 210.908 420.816 210.908 417.906C210.908 415.655 211.566 413.732 212.882 412.138C214.199 410.545 215.948 409.488 218.131 408.969C217.784 403.218 215.151 400.343 210.232 400.343V397.121H206.751V393.64H240.267V397.121ZM230.03 413.126V397.121H214.285C216.745 397.883 218.598 399.304 219.845 401.382C221.127 403.461 221.872 405.903 222.08 408.709C225.821 408.986 228.471 410.458 230.03 413.126ZM269.709 427H265.707V404.344C265.707 402.231 265.205 400.412 264.2 398.888C263.196 397.364 261.498 396.601 259.108 396.601C257.341 396.601 255.938 397.138 254.899 398.212C253.86 399.286 253.34 400.724 253.34 402.525C253.34 404.465 253.825 405.938 254.795 406.942C255.8 407.947 257.151 408.449 258.848 408.449C259.576 408.449 260.303 408.397 261.031 408.293V411.879C260.234 412.017 259.403 412.087 258.536 412.087C255.211 412.087 252.803 410.891 251.314 408.501C249.859 410.891 247.486 412.087 244.195 412.087C243.225 412.087 242.255 411.983 241.285 411.775V408.241C242.081 408.38 242.93 408.449 243.831 408.449C245.598 408.449 246.949 407.947 247.884 406.942C248.854 405.938 249.339 404.465 249.339 402.525C249.339 400.759 248.802 399.425 247.728 398.524C246.654 397.623 245.165 397.173 243.259 397.173L237.959 397.121V393.64H243.467C247.001 393.64 249.581 394.8 251.21 397.121C252.872 394.454 255.419 393.12 258.848 393.12C261.897 393.12 264.183 394.107 265.707 396.082V389.275H269.709V393.64H275.58V397.121H269.709V427ZM265.642 388.937L272.968 381.143H276.814V381.351L269.591 389.145H265.642V388.937ZM311.05 412.554C311.05 415.603 310.219 417.958 308.556 419.621C306.893 421.284 304.78 422.115 302.217 422.115C301.766 422.115 301.437 422.098 301.229 422.063V418.322H301.853C305.352 418.322 307.101 416.399 307.101 412.554C307.101 410.06 306.148 408.068 304.243 406.578C302.338 405.054 299.913 404.292 296.968 404.292V427H293.019L276.754 414.581V410.06C282.54 404.76 287.961 401.659 293.019 400.759V397.121H273.481V393.64H314.272V397.121H296.968V400.707C301.021 400.741 304.382 401.867 307.049 404.084C309.717 406.267 311.05 409.09 311.05 412.554ZM293.019 422.375V404.5C289.104 405.47 284.826 408.085 280.184 412.346L293.019 422.375ZM350.45 427L347.911 419.132H335.063L332.523 427H328.29L339.545 393.137H343.628L354.932 427H350.45ZM338.2 409.371L336.308 415.198H346.616L344.724 409.371L341.487 398.914L338.2 409.371ZM365.597 427H361.264V393.137H365.597V427Z" fill="white"/>
</svg>
